<?xml version="1.0"?><svg version="1.1" id="Layer_1" xmlns="http://www.w3.org/2000/svg" x="0" y="0" viewBox="0 0 100 100" xml:space="preserve"><path id="XMLID_2_" d="M50 92.5c-5.7 0-11.3-1.1-16.5-3.3-5.1-2.1-9.6-5.2-13.5-9.1-3.5-3.5-3.5-9.2 0-12.7s9.2-3.5 12.7 0c2.3 2.3 4.9 4 7.8 5.3 3 1.3 6.2 1.9 9.6 1.9s6.5-.6 9.6-1.9c2.9-1.2 5.6-3 7.8-5.3 2.3-2.3 4-4.9 5.3-7.8 1.3-3 1.9-6.2 1.9-9.6 0-3.3-.6-6.5-1.9-9.6-1.2-2.9-3-5.6-5.3-7.8-2.3-2.3-4.9-4-7.8-5.3-3-1.3-6.2-1.9-9.6-1.9-4.9 0-8.9-4-8.9-8.9s4-8.9 8.9-8.9c5.7 0 11.3 1.1 16.5 3.3 5.1 2.1 9.6 5.2 13.5 9.1 3.9 3.9 7 8.4 9.1 13.5 2.2 5.2 3.3 10.8 3.3 16.5 0 5.7-1.1 11.3-3.3 16.5-2.1 5.1-5.2 9.6-9.1 13.5-3.9 3.9-8.4 7-13.5 9.1-5.3 2.3-10.9 3.4-16.6 3.4z" fill="#fff"/><metadata xmlns:d="https://loading.io/stock/">
<d:name>ring</d:name>
<d:tags>circle,round,curve,rotate,c,ring,spinner</d:tags>
<d:license>by</d:license>
<d:slug>4v0l3e</d:slug>
</metadata></svg>